<?xml version="1.0" standalone="no"?>
<!DOCTYPE svg PUBLIC "-//W3C//DTD SVG 20010904//EN"
 "http://www.w3.org/TR/2001/REC-SVG-20010904/DTD/svg10.dtd">
<svg version="1.0" xmlns="http://www.w3.org/2000/svg"
 width="512.000000pt" height="512.000000pt" viewBox="0 0 512.000000 512.000000"
 preserveAspectRatio="xMidYMid meet">
<metadata>
Created by potrace 1.16, written by Peter Selinger 2001-2019
</metadata>
<g transform="translate(0.000000,512.000000) scale(0.100000,-0.100000)"
fill="#000000" stroke="none">
<path d="M3405 3979 c-147 -8 -218 -25 -322 -74 -87 -41 -97 -38 -15 4 31 17
53 30 49 31 -12 0 -108 -50 -157 -83 -65 -44 -189 -167 -184 -181 3 -7 -3 -19
-13 -27 -17 -13 -17 -13 -3 6 14 18 14 19 -2 7 -9 -8 -15 -19 -12 -27 3 -7 0
-16 -7 -21 -8 -5 -10 -3 -4 7 5 8 4 11 -1 6 -5 -5 -9 -14 -9 -20 0 -7 -17 -46
-38 -88 -57 -116 -78 -212 -78 -354 0 -232 67 -396 235 -575 l70 -75 -67 65
c-37 36 -84 89 -104 118 -41 58 -54 69 -26 20 21 -37 191 -218 205 -218 5 0 6
5 3 10 -10 16 1 11 16 -7 12 -15 12 -16 -1 -8 -13 8 -13 7 -1 -8 15 -19 36
-23 25 -5 -4 7 -3 8 5 4 6 -4 9 -11 6 -16 -3 -5 17 -21 46 -35 28 -15 48 -22
44 -16 -3 7 0 8 9 5 9 -3 14 -10 11 -14 -3 -4 13 -15 35 -24 47 -18 61 -20 40
-5 -13 10 -13 10 0 6 93 -29 182 -39 304 -35 72 2 118 1 101 -3 -26 -6 -27 -7
-5 -7 14 0 36 4 50 8 21 7 22 8 5 9 -11 1 16 14 60 30 44 15 90 33 103 39 12
7 22 10 22 7 0 -3 -24 -17 -52 -31 -29 -13 -42 -21 -28 -18 44 12 121 54 115
64 -3 5 0 8 7 5 19 -7 139 87 201 158 71 81 117 155 110 175 -4 10 -2 13 5 8
8 -5 10 -1 5 10 -3 10 -2 15 3 12 5 -4 10 4 11 15 0 12 13 60 27 107 49 156
45 331 -10 484 -14 39 -26 81 -27 93 -1 11 -5 19 -9 17 -4 -3 -16 13 -27 34
-11 21 -38 63 -61 93 -23 30 -29 40 -13 24 15 -17 38 -44 51 -60 13 -17 20
-23 16 -15 -4 8 -31 44 -60 81 -66 81 -186 185 -158 137 4 -8 3 -10 -2 -5 -5
5 -9 14 -9 19 0 6 -6 13 -14 16 -9 3 -11 0 -6 -8 5 -9 4 -11 -4 -6 -6 4 -9 11
-6 16 8 12 -33 33 -47 24 -7 -4 -8 -3 -4 5 5 7 -12 20 -49 36 -63 28 -82 32
-45 9 16 -10 18 -13 5 -8 -52 18 -152 44 -175 45 -23 1 -23 2 5 9 26 7 27 8 5
7 -14 0 -83 -4 -155 -8z m125 -40 c104 -16 146 -29 129 -40 -8 -5 -9 -9 -2 -9
6 0 20 -3 30 -6 15 -5 16 -4 3 6 -12 9 -10 10 10 4 14 -3 36 -13 50 -21 14 -8
17 -12 8 -9 -10 3 -26 8 -35 12 -10 3 7 -8 37 -25 61 -33 75 -37 64 -18 -4 7
-3 9 2 4 5 -5 9 -14 9 -19 0 -6 6 -13 14 -16 9 -3 11 0 6 9 -5 8 -4 11 1 6 5
-5 9 -14 9 -19 0 -6 6 -13 14 -16 8 -3 11 0 7 7 -11 17 0 13 15 -6 12 -15 12
-16 -1 -8 -19 10 -12 3 60 -60 l55 -49 -50 54 -50 55 52 -49 c29 -27 50 -53
47 -57 -2 -5 11 -30 30 -56 43 -62 79 -133 102 -205 9 -32 19 -56 22 -54 14
14 -59 179 -115 261 -33 49 -33 50 -3 15 44 -50 107 -181 131 -275 28 -110 28
-271 -1 -380 -38 -146 -115 -281 -216 -375 -47 -44 -47 -43 7 15 30 33 65 76
78 95 l22 35 -27 -35 c-15 -19 -59 -66 -98 -105 -39 -38 -62 -63 -51 -55 18
14 19 14 7 -2 -8 -9 -19 -15 -27 -12 -7 3 -16 0 -21 -7 -5 -8 -3 -10 6 -4 9 5
11 4 6 -4 -4 -6 -11 -9 -16 -6 -13 8 -52 -14 -45 -25 4 -6 -1 -7 -11 -3 -12 4
-15 3 -10 -5 5 -8 1 -10 -10 -5 -12 4 -15 3 -10 -5 4 -7 2 -10 -6 -7 -7 3 -42
-6 -78 -20 -36 -13 -59 -24 -53 -24 7 -1 36 8 65 19 60 23 78 20 20 -3 -97
-39 -167 -51 -292 -51 -135 1 -210 15 -303 60 -48 22 -48 24 1 8 9 -3 -17 13
-59 36 -42 23 -95 57 -117 76 -40 33 -59 44 -47 24 12 -19 -1 -10 -31 22 -16
17 -23 28 -16 24 19 -11 14 9 -8 29 -11 10 -34 40 -51 66 -17 27 -33 49 -35
49 -7 0 13 -35 51 -86 l36 -49 -35 38 c-45 50 -108 172 -137 267 -31 98 -34
308 -6 410 34 124 101 247 187 340 29 32 26 25 -12 -22 -50 -63 -105 -148 -95
-148 2 0 21 27 41 59 20 32 73 94 118 137 46 43 77 74 69 69 -10 -5 -12 -4 -7
4 4 6 11 9 15 7 4 -3 48 15 97 40 49 25 78 43 64 39 -14 -4 -46 -18 -72 -31
-27 -14 -48 -22 -48 -19 0 10 98 54 168 75 126 38 230 47 342 29z"/>
<path d="M998 3183 l-3 -448 -5 445 -5 445 -3 -432 -2 -433 -387 -2 -388 -3
390 -5 390 -5 -387 -3 c-337 -2 -388 -4 -388 -17 0 -13 51 -15 388 -17 l387
-3 -390 -5 -390 -5 388 -3 387 -2 2 -377 3 -378 5 390 5 390 3 -387 c2 -337 4
-388 17 -388 13 0 15 51 17 388 l3 387 5 -390 5 -390 3 378 2 377 423 2 422 3
-425 5 -425 5 428 3 c372 2 427 4 427 17 0 13 -55 15 -427 17 l-428 3 425 5
425 5 -422 3 -423 2 -2 438 -3 437 -5 -450 -5 -450 -3 448 c-2 390 -4 447 -17
447 -13 0 -15 -57 -17 -447z"/>
<path d="M2790 2119 c41 -6 42 -6 10 -8 -31 -1 -111 -17 -190 -36 -20 -6 -22
-5 -10 5 12 9 10 10 -10 4 -36 -10 -62 -26 -30 -19 l25 5 -25 -12 c-14 -6 -51
-25 -82 -40 -32 -16 -58 -26 -58 -23 0 2 26 18 58 34 31 17 54 30 49 31 -18 1
-147 -71 -142 -80 3 -5 0 -12 -6 -16 -8 -5 -9 -3 -4 6 5 8 3 11 -6 8 -8 -3
-14 -10 -14 -16 0 -5 -4 -14 -9 -19 -5 -5 -6 -3 -2 5 11 18 -9 15 -25 -5 -10
-11 -10 -14 -1 -9 18 11 15 1 -5 -15 -11 -10 -14 -10 -9 -1 20 33 -20 4 -96
-70 -94 -94 -191 -229 -181 -255 4 -11 3 -14 -5 -9 -8 5 -10 1 -5 -10 3 -10 2
-15 -3 -12 -5 4 -10 -4 -10 -15 -1 -12 -13 -53 -28 -90 -47 -122 -74 -337 -42
-337 10 0 16 19 21 68 9 94 23 167 47 242 23 70 76 183 103 215 9 11 13 14 9
6 -5 -9 -3 -12 5 -7 6 4 9 12 5 17 -7 12 60 100 122 159 39 37 37 33 -12 -21
-33 -36 -71 -81 -83 -100 -19 -28 -17 -27 10 6 48 58 147 153 191 182 21 14
35 29 33 34 -3 4 0 11 6 15 8 5 9 3 4 -6 -5 -8 -3 -11 6 -8 8 3 13 11 11 17
-1 7 2 10 7 6 6 -3 29 4 53 16 23 12 69 32 102 45 34 13 55 23 48 24 -7 0 -29
-7 -49 -15 -44 -19 -56 -19 -22 0 14 8 61 24 105 37 78 22 87 22 729 26 433 2
671 -1 712 -8 71 -12 197 -49 191 -56 -3 -2 -24 3 -48 11 -23 8 -48 15 -54 14
-6 0 18 -11 54 -23 157 -55 279 -135 391 -253 40 -43 65 -67 54 -53 -11 14
-46 55 -80 91 -35 38 -25 30 23 -19 49 -49 81 -90 78 -98 -3 -7 0 -16 6 -20 7
-5 8 -2 4 7 -4 8 2 3 13 -11 79 -97 161 -348 161 -496 0 -34 4 -44 16 -44 15
0 16 11 11 98 -9 154 -70 329 -159 460 -16 23 -26 47 -23 52 7 12 -187 210
-205 210 -6 0 -8 -6 -4 -12 5 -9 2 -9 -9 1 -19 15 -23 26 -5 15 6 -4 8 -3 5 4
-12 19 -97 63 -109 56 -7 -4 -8 -3 -4 4 8 14 -30 35 -50 28 -8 -3 -13 -2 -10
3 3 4 -6 13 -20 20 -35 16 -44 13 -14 -5 16 -10 18 -13 5 -8 -84 30 -192 56
-269 64 -96 11 -1334 19 -1256 9z"/>
</g>
</svg>
